<svg width="30" height="30" viewBox="0 0 30 30" fill="none" xmlns="http://www.w3.org/2000/svg">
<path d="M15.625 3.75H9.75C7.6498 3.75 6.5997 3.75 5.79754 4.15873C5.09193 4.51825 4.51825 5.09193 4.15873 5.79754C3.75 6.5997 3.75 7.6498 3.75 9.75V20.25C3.75 22.3502 3.75 23.4003 4.15873 24.2025C4.51825 24.9081 5.09193 25.4817 5.79754 25.8413C6.5997 26.25 7.6498 26.25 9.75 26.25H21.25C22.4125 26.25 22.9937 26.25 23.4706 26.1222C24.7647 25.7755 25.7755 24.7647 26.1222 23.4706C26.25 22.9937 26.25 22.4125 26.25 21.25M23.75 10V2.5M20 6.25H27.5M13.125 10.625C13.125 12.0057 12.0057 13.125 10.625 13.125C9.24429 13.125 8.125 12.0057 8.125 10.625C8.125 9.24429 9.24429 8.125 10.625 8.125C12.0057 8.125 13.125 9.24429 13.125 10.625ZM18.7375 14.8977L8.16394 24.5101C7.5692 25.0507 7.27184 25.3211 7.24553 25.5552C7.22274 25.7582 7.30057 25.9596 7.45398 26.0944C7.63097 26.25 8.03285 26.25 8.83661 26.25H20.57C22.3689 26.25 23.2684 26.25 23.9749 25.9478C24.8618 25.5684 25.5684 24.8618 25.9478 23.9749C26.25 23.2684 26.25 22.3689 26.25 20.57C26.25 19.9647 26.25 19.662 26.1838 19.3802C26.1007 19.026 25.9412 18.6942 25.7166 18.408C25.5378 18.1803 25.3015 17.9912 24.8288 17.6131L21.3323 14.8158C20.8592 14.4374 20.6227 14.2482 20.3622 14.1814C20.1327 14.1225 19.8911 14.1302 19.6657 14.2034C19.4099 14.2864 19.1858 14.4902 18.7375 14.8977Z" stroke="custom" stroke-width="2" stroke-linecap="round" stroke-linejoin="round"/>
</svg>
